<svg xmlns="http://www.w3.org/2000/svg" aria-hidden="true" style="position:absolute;width:0;height:0;overflow:hidden">
  <symbol id="er-logo" viewBox="107.12 175.64 636.32 225.29"><path d="M109.12 253.64C113.74 226.14 157.75 233.71 176.54 235.35C219.56 238.89 261.33 241.05 303.23 228.69C306.32 227.65 309.73 226.75 313.19 225.78C316.64 224.8 320.16 223.75 323.45 222.39C328.24 220.55 335.96 217.96 342.7 214.87C349.45 211.78 355.21 208.2 356.08 204.36C356.2 203.79 356.2 203.22 356.09 202.64C355.97 202.07 355.72 201.5 355.34 200.91C351.23 195.73 344.82 194.57 338.61 195.99C332.39 197.42 326.38 201.43 323.06 206.62C321.4 209.11 320.17 212.27 319.85 215.43C319.52 218.6 320.1 221.77 322.04 224.29C323.93 226.82 326.83 228.8 329.99 229.98C333.15 231.17 336.58 231.56 339.52 230.9C339.86 230.79 340.07 230.68 340.16 230.55C340.24 230.43 340.2 230.3 340.06 230.18C339.77 229.93 339.05 229.67 337.97 229.43C336.89 229.2 335.46 228.99 333.76 228.83C330.43 228.51 326.47 228.46 322.48 228.67C318.48 228.88 314.45 229.34 310.96 230.03C308.58 230.48 306.27 231.07 303.99 231.8C301.71 232.54 299.48 233.41 297.25 234.42C287.72 238.71 281.12 244.57 277.09 250.92C273.06 257.27 271.61 264.1 272.39 270.36C278.9 308.89 338.78 294.87 362.89 287.37C395.96 276.22 438.94 259.12 452.52 223.39C454.41 217.6 454.11 210.55 452.3 203.89C450.49 197.24 447.47 191.3 443.86 187.98C425.34 170.27 400.16 176.81 386.13 196.26C366.22 222.46 368.84 257.8 377.68 287.46C381.68 300.25 397.74 361.86 365.43 358.13C333.93 348.78 367.64 295.23 376.15 282.85C384.02 272.76 395.61 269.83 407.46 267.04C429.58 263.87 451.96 269.61 472.97 275.85C525.46 293.47 582.6 298.21 637.64 296.3C656.17 295.54 736.9 298.3 741.43 270.89" fill="none" stroke="currentColor" stroke-linecap="round" stroke-linejoin="round" vector-effect="non-scaling-stroke" style="stroke-width:var(--sw,1px)"/><path fill="currentColor" d="M109.22 339.53L109.22 318.8L123.84 318.8L123.84 321.38L112.17 321.38L112.17 336.95L124.26 336.95L124.26 339.53ZM111.9 330.27L111.9 327.75L122.57 327.75L122.57 330.27ZM111.9 330.27M158.67 339.53L158.67 318.8L166.75 318.8C169.44 318.8 171.55 319.44 173.1 320.72C174.63 321.99 175.41 323.76 175.41 326.03C175.41 327.53 175.06 328.82 174.36 329.89C173.67 330.97 172.69 331.79 171.41 332.36C170.13 332.93 168.57 333.22 166.75 333.22L160.3 333.22L161.63 331.86L161.63 339.53ZM172.53 339.53L167.27 332.02L170.42 332.02L175.75 339.53ZM161.63 332.16L160.3 330.7L166.67 330.7C168.57 330.7 170 330.3 170.97 329.49C171.95 328.66 172.44 327.51 172.44 326.03C172.44 324.56 171.95 323.41 170.97 322.59C170 321.78 168.57 321.38 166.67 321.38L160.3 321.38L161.63 319.91ZM161.63 332.16M209.82 339.53L209.82 318.8L212.77 318.8L212.77 339.53ZM209.82 339.53M257.88 339.77C256.31 339.77 254.85 339.51 253.52 338.99C252.19 338.47 251.03 337.73 250.05 336.77C249.07 335.81 248.31 334.69 247.76 333.41C247.2 332.13 246.93 330.72 246.93 329.17C246.93 327.63 247.2 326.22 247.76 324.94C248.31 323.66 249.08 322.54 250.07 321.58C251.06 320.62 252.21 319.88 253.54 319.36C254.87 318.83 256.33 318.56 257.91 318.56C259.51 318.56 260.99 318.84 262.33 319.39C263.69 319.93 264.84 320.74 265.79 321.8L263.87 323.66C263.07 322.84 262.18 322.22 261.19 321.81C260.21 321.41 259.16 321.2 258.04 321.2C256.87 321.2 255.79 321.4 254.79 321.8C253.79 322.2 252.92 322.75 252.19 323.45C251.46 324.16 250.9 325.01 250.49 325.99C250.08 326.97 249.88 328.03 249.88 329.17C249.88 330.32 250.08 331.38 250.49 332.36C250.9 333.33 251.46 334.17 252.19 334.89C252.92 335.6 253.79 336.15 254.79 336.55C255.79 336.95 256.87 337.14 258.04 337.14C259.16 337.14 260.21 336.94 261.19 336.53C262.18 336.13 263.07 335.5 263.87 334.64L265.79 336.52C264.84 337.58 263.69 338.39 262.33 338.94C260.99 339.49 259.51 339.77 257.88 339.77ZM257.88 339.77M295.7 339.53L305.09 318.8L308.02 318.8L317.44 339.53L314.33 339.53L305.95 320.47L307.14 320.47L298.75 339.53ZM299.7 334.34L300.5 331.99L312.17 331.99L313.03 334.34ZM299.7 334.34M425.3 339.53L425.3 318.8L433.38 318.8C436.07 318.8 438.18 319.44 439.72 320.72C441.26 321.99 442.04 323.76 442.04 326.03C442.04 327.53 441.69 328.82 440.99 329.89C440.3 330.97 439.32 331.79 438.04 332.36C436.76 332.93 435.2 333.22 433.38 333.22L426.93 333.22L428.26 331.86L428.26 339.53ZM439.16 339.53L433.9 332.02L437.05 332.02L442.38 339.53ZM428.26 332.16L426.93 330.7L433.3 330.7C435.2 330.7 436.63 330.3 437.6 329.49C438.58 328.66 439.07 327.51 439.07 326.03C439.07 324.56 438.58 323.41 437.6 322.59C436.63 321.78 435.2 321.38 433.3 321.38L426.93 321.38L428.26 319.91ZM428.26 332.16M476.45 339.53L476.45 318.8L491.07 318.8L491.07 321.38L479.4 321.38L479.4 336.95L491.5 336.95L491.5 339.53ZM479.14 330.27L479.14 327.75L489.81 327.75L489.81 330.27ZM479.14 330.27M525.91 339.53L525.91 318.8L528.33 318.8L542.05 335.83L540.77 335.83L540.77 318.8L543.73 318.8L543.73 339.53L541.3 339.53L527.59 322.5L528.86 322.5L528.86 339.53ZM525.91 339.53M577.73 339.53L577.73 337.52L591.68 320.22L592.01 321.38L577.95 321.38L577.95 318.8L594.66 318.8L594.66 320.81L580.79 338.11L580.43 336.95L595.05 336.95L595.05 339.53ZM577.73 339.53M637.77 339.77C636.18 339.77 634.71 339.5 633.36 338.97C632.02 338.44 630.85 337.7 629.86 336.74C628.87 335.78 628.1 334.66 627.55 333.38C626.99 332.09 626.72 330.7 626.72 329.17C626.72 327.65 626.99 326.25 627.55 324.97C628.1 323.68 628.87 322.56 629.86 321.61C630.85 320.65 632.01 319.91 633.34 319.38C634.69 318.84 636.16 318.56 637.77 318.56C639.34 318.56 640.79 318.83 642.13 319.36C643.46 319.88 644.63 320.62 645.63 321.58C646.63 322.54 647.39 323.66 647.94 324.94C648.48 326.22 648.75 327.63 648.75 329.17C648.75 330.72 648.48 332.13 647.94 333.41C647.39 334.69 646.63 335.81 645.63 336.77C644.63 337.73 643.46 338.47 642.13 338.99C640.79 339.51 639.34 339.77 637.77 339.77ZM637.77 337.14C638.91 337.14 639.97 336.95 640.94 336.55C641.91 336.15 642.77 335.59 643.48 334.88C644.21 334.15 644.77 333.31 645.17 332.34C645.58 331.38 645.78 330.32 645.78 329.17C645.78 328.03 645.58 326.97 645.17 326C644.77 325.03 644.21 324.19 643.48 323.47C642.77 322.75 641.91 322.2 640.94 321.8C639.97 321.4 638.91 321.2 637.77 321.2C636.6 321.2 635.52 321.4 634.55 321.8C633.57 322.2 632.71 322.75 631.98 323.47C631.25 324.19 630.69 325.03 630.28 326C629.88 326.97 629.67 328.03 629.67 329.17C629.67 330.32 629.88 331.38 630.28 332.34C630.69 333.31 631.25 334.15 631.98 334.88C632.71 335.59 633.57 336.15 634.55 336.55C635.52 336.95 636.6 337.14 637.77 337.14ZM637.77 337.14M682.9 339.53L682.9 318.8L685.32 318.8L699.04 335.83L697.76 335.83L697.76 318.8L700.73 318.8L700.73 339.53L698.29 339.53L684.59 322.5L685.85 322.5L685.85 339.53ZM682.9 339.53M736.56 339.53L736.56 318.8L739.52 318.8L739.52 339.53ZM736.56 339.53"/><path fill="currentColor" d="M269.59 398.93C268.74 398.93 267.96 398.79 267.24 398.51C266.53 398.23 265.92 397.84 265.38 397.33C264.86 396.82 264.45 396.22 264.17 395.53C263.87 394.83 263.73 394.07 263.73 393.25C263.73 392.43 263.87 391.67 264.17 390.98C264.45 390.29 264.87 389.68 265.4 389.17C265.93 388.66 266.55 388.26 267.26 387.98C267.98 387.7 268.76 387.56 269.6 387.56C270.4 387.56 271.16 387.7 271.87 387.97C272.59 388.24 273.2 388.65 273.7 389.18L272.93 389.93C272.47 389.47 271.97 389.13 271.42 388.92C270.86 388.71 270.27 388.61 269.63 388.61C268.95 388.61 268.33 388.72 267.76 388.95C267.19 389.18 266.69 389.51 266.26 389.93C265.83 390.35 265.5 390.84 265.26 391.4C265.02 391.97 264.9 392.58 264.9 393.25C264.9 393.91 265.02 394.53 265.26 395.09C265.5 395.65 265.83 396.15 266.26 396.58C266.69 396.99 267.19 397.32 267.76 397.54C268.33 397.77 268.95 397.89 269.63 397.89C270.27 397.89 270.86 397.79 271.42 397.58C271.97 397.36 272.47 397.01 272.93 396.54L273.7 397.29C273.2 397.84 272.59 398.25 271.87 398.53C271.16 398.8 270.4 398.93 269.59 398.93ZM269.59 398.93M283.59 398.93C282.74 398.93 281.96 398.79 281.24 398.51C280.52 398.23 279.9 397.84 279.37 397.33C278.84 396.81 278.42 396.2 278.13 395.51C277.84 394.83 277.7 394.07 277.7 393.25C277.7 392.43 277.84 391.67 278.13 390.98C278.42 390.29 278.84 389.7 279.37 389.18C279.9 388.66 280.52 388.26 281.23 387.98C281.95 387.7 282.73 387.56 283.59 387.56C284.42 387.56 285.2 387.7 285.91 387.98C286.63 388.26 287.25 388.66 287.77 389.17C288.31 389.68 288.72 390.29 289.01 390.98C289.3 391.67 289.45 392.43 289.45 393.25C289.45 394.07 289.3 394.83 289.01 395.53C288.72 396.22 288.31 396.82 287.77 397.33C287.25 397.84 286.63 398.23 285.91 398.51C285.2 398.79 284.42 398.93 283.59 398.93ZM283.59 397.89C284.25 397.89 284.87 397.77 285.45 397.54C286.02 397.32 286.51 396.99 286.93 396.58C287.34 396.15 287.67 395.65 287.9 395.09C288.14 394.53 288.26 393.91 288.26 393.25C288.26 392.58 288.14 391.97 287.9 391.4C287.67 390.84 287.34 390.35 286.93 389.93C286.51 389.51 286.02 389.18 285.45 388.95C284.87 388.72 284.25 388.61 283.59 388.61C282.91 388.61 282.28 388.72 281.71 388.95C281.14 389.18 280.64 389.51 280.21 389.93C279.79 390.35 279.47 390.84 279.23 391.4C278.99 391.97 278.87 392.58 278.87 393.25C278.87 393.9 278.99 394.52 279.23 395.09C279.47 395.65 279.79 396.15 280.21 396.58C280.64 396.99 281.14 397.32 281.71 397.54C282.28 397.77 282.91 397.89 283.59 397.89ZM283.59 397.89M295.3 398.84L295.3 387.65L296.27 387.65L303.99 397.37L303.47 397.37L303.47 387.65L304.64 387.65L304.64 398.84L303.68 398.84L295.97 389.12L296.47 389.12L296.47 398.84ZM295.3 398.84M314.57 398.93C313.73 398.93 312.94 398.8 312.18 398.53C311.42 398.26 310.83 397.91 310.41 397.48L310.88 396.58C311.28 396.96 311.8 397.29 312.46 397.54C313.12 397.81 313.83 397.93 314.57 397.93C315.28 397.93 315.85 397.85 316.29 397.67C316.72 397.49 317.05 397.26 317.26 396.97C317.46 396.66 317.57 396.33 317.57 395.97C317.57 395.53 317.44 395.18 317.19 394.92C316.94 394.65 316.62 394.43 316.21 394.28C315.81 394.12 315.37 393.99 314.87 393.87C314.37 393.76 313.88 393.63 313.4 393.5C312.9 393.36 312.46 393.18 312.05 392.97C311.65 392.74 311.31 392.44 311.05 392.08C310.8 391.7 310.68 391.22 310.68 390.62C310.68 390.07 310.82 389.57 311.12 389.11C311.42 388.64 311.87 388.26 312.47 387.98C313.08 387.7 313.85 387.56 314.8 387.56C315.44 387.56 316.06 387.65 316.68 387.83C317.29 388 317.82 388.24 318.27 388.54L317.88 389.5C317.4 389.18 316.89 388.94 316.35 388.79C315.81 388.64 315.29 388.56 314.79 388.56C314.12 388.56 313.57 388.65 313.13 388.84C312.69 389.02 312.37 389.26 312.16 389.56C311.95 389.86 311.85 390.21 311.85 390.59C311.85 391.03 311.97 391.38 312.22 391.65C312.47 391.91 312.8 392.12 313.21 392.28C313.62 392.43 314.08 392.56 314.57 392.67C315.06 392.79 315.54 392.91 316.02 393.06C316.51 393.2 316.96 393.37 317.37 393.59C317.78 393.81 318.12 394.1 318.37 394.47C318.62 394.82 318.74 395.29 318.74 395.89C318.74 396.43 318.59 396.93 318.29 397.4C317.99 397.86 317.54 398.23 316.93 398.51C316.31 398.79 315.53 398.93 314.57 398.93ZM314.57 398.93M329.02 398.93C327.59 398.93 326.46 398.53 325.64 397.72C324.82 396.9 324.41 395.68 324.41 394.06L324.41 387.65L325.59 387.65L325.59 394.01C325.59 395.34 325.89 396.32 326.48 396.95C327.09 397.58 327.93 397.89 329.02 397.89C330.11 397.89 330.95 397.58 331.55 396.95C332.15 396.32 332.45 395.34 332.45 394.01L332.45 387.65L333.61 387.65L333.61 394.06C333.61 395.68 333.2 396.9 332.37 397.72C331.56 398.53 330.44 398.93 329.02 398.93ZM329.02 398.93M340.37 398.84L340.37 387.65L341.54 387.65L341.54 397.83L347.81 397.83L347.81 398.84ZM340.37 398.84M352.98 398.84L352.98 387.65L360.65 387.65L360.65 388.67L354.15 388.67L354.15 397.83L360.89 397.83L360.89 398.84ZM354.03 393.67L354.03 392.65L359.95 392.65L359.95 393.67ZM354.03 393.67M366.87 398.84L366.87 387.65L367.84 387.65L375.55 397.37L375.04 397.37L375.04 387.65L376.21 387.65L376.21 398.84L375.24 398.84L367.54 389.12L368.04 389.12L368.04 398.84ZM366.87 398.84M385.23 398.84L385.23 388.67L381.29 388.67L381.29 387.65L390.34 387.65L390.34 388.67L386.4 388.67L386.4 398.84ZM385.23 398.84M395.43 398.84L395.43 387.65L403.1 387.65L403.1 388.67L396.6 388.67L396.6 397.83L403.33 397.83L403.33 398.84ZM396.47 393.67L396.47 392.65L402.39 392.65L402.39 393.67ZM396.47 393.67M416.7 398.84L416.7 387.65L421.24 387.65C422.44 387.65 423.49 387.9 424.39 388.37C425.29 388.84 425.99 389.5 426.49 390.34C426.99 391.18 427.24 392.15 427.24 393.25C427.24 394.34 426.99 395.31 426.49 396.15C425.99 397 425.29 397.66 424.39 398.14C423.49 398.61 422.44 398.84 421.24 398.84ZM417.87 397.83L421.18 397.83C422.17 397.83 423.03 397.63 423.76 397.25C424.49 396.85 425.06 396.31 425.46 395.62C425.87 394.93 426.07 394.15 426.07 393.25C426.07 392.34 425.87 391.55 425.46 390.87C425.06 390.18 424.49 389.65 423.76 389.26C423.03 388.87 422.17 388.67 421.18 388.67L417.87 388.67ZM417.87 397.83M431.92 390.89L432.62 387.93L432.75 388.61C432.51 388.61 432.3 388.54 432.14 388.39C431.97 388.23 431.89 388.02 431.89 387.76C431.89 387.51 431.97 387.31 432.14 387.15C432.3 386.99 432.5 386.9 432.73 386.9C432.98 386.9 433.18 386.99 433.34 387.15C433.5 387.32 433.58 387.52 433.58 387.76C433.58 387.85 433.57 387.93 433.56 388.03C433.55 388.11 433.53 388.21 433.5 388.31C433.47 388.4 433.42 388.52 433.37 388.67L432.68 390.89ZM431.92 390.89M439.44 398.84L439.44 387.65L440.61 387.65L440.61 398.84ZM439.44 398.84M447.46 398.84L447.46 387.65L448.43 387.65L453.54 396.37L453.04 396.37L458.1 387.65L459.07 387.65L459.07 398.84L457.95 398.84L457.95 389.42L458.21 389.42L453.54 397.42L453 397.42L448.29 389.42L448.59 389.42L448.59 398.84ZM447.46 398.84M465.92 398.84L465.92 387.65L466.89 387.65L472 396.37L471.5 396.37L476.56 387.65L477.53 387.65L477.53 398.84L476.41 398.84L476.41 389.42L476.67 389.42L472 397.42L471.45 397.42L466.75 389.42L467.05 389.42L467.05 398.84ZM465.92 398.84M482.58 398.84L487.69 387.65L488.87 387.65L493.98 398.84L492.74 398.84L488.04 388.34L488.52 388.34L483.82 398.84ZM484.6 395.86L484.94 394.89L491.46 394.89L491.8 395.86ZM484.6 395.86M503.78 398.93C502.93 398.93 502.14 398.79 501.42 398.51C500.71 398.23 500.08 397.84 499.55 397.33C499.02 396.82 498.6 396.22 498.31 395.53C498.02 394.83 497.88 394.07 497.88 393.25C497.88 392.43 498.02 391.67 498.31 390.98C498.6 390.29 499.02 389.68 499.55 389.17C500.09 388.66 500.72 388.26 501.44 387.98C502.16 387.7 502.94 387.56 503.8 387.56C504.65 387.56 505.43 387.7 506.14 387.97C506.85 388.23 507.46 388.63 507.96 389.17L507.22 389.92C506.75 389.45 506.23 389.12 505.66 388.92C505.1 388.71 504.49 388.61 503.85 388.61C503.15 388.61 502.51 388.72 501.92 388.95C501.35 389.18 500.85 389.51 500.41 389.93C499.98 390.35 499.65 390.84 499.41 391.4C499.17 391.97 499.05 392.58 499.05 393.25C499.05 393.9 499.17 394.52 499.41 395.09C499.65 395.65 499.98 396.15 500.41 396.58C500.85 396.99 501.35 397.32 501.92 397.54C502.51 397.77 503.14 397.89 503.83 397.89C504.46 397.89 505.07 397.79 505.64 397.61C506.21 397.41 506.74 397.08 507.22 396.62L507.89 397.51C507.35 397.98 506.72 398.34 506 398.58C505.29 398.82 504.55 398.93 503.78 398.93ZM507.89 397.51L506.75 397.37L506.75 393.25L507.89 393.25ZM507.89 397.51M514.43 398.84L514.43 387.65L515.6 387.65L515.6 398.84ZM514.43 398.84M522.45 398.84L522.45 387.65L523.42 387.65L531.14 397.37L530.62 397.37L530.62 387.65L531.79 387.65L531.79 398.84L530.82 398.84L523.12 389.12L523.62 389.12L523.62 398.84ZM522.45 398.84M538.64 398.84L538.64 387.65L546.31 387.65L546.31 388.67L539.81 388.67L539.81 397.83L546.55 397.83L546.55 398.84ZM539.69 393.67L539.69 392.65L545.61 392.65L545.61 393.67ZM539.69 393.67"/></symbol>
  <symbol id="er-logo-mark" viewBox="106.12 174.64 638.32 186.57"><path d="M109.12 253.64C113.74 226.14 157.75 233.71 176.54 235.35C219.56 238.89 261.33 241.05 303.23 228.69C306.32 227.65 309.73 226.75 313.19 225.78C316.64 224.8 320.16 223.75 323.45 222.39C328.24 220.55 335.96 217.96 342.7 214.87C349.45 211.78 355.21 208.2 356.08 204.36C356.2 203.79 356.2 203.22 356.09 202.64C355.97 202.07 355.72 201.5 355.34 200.91C351.23 195.73 344.82 194.57 338.61 195.99C332.39 197.42 326.38 201.43 323.06 206.62C321.4 209.11 320.17 212.27 319.85 215.43C319.52 218.6 320.1 221.77 322.04 224.29C323.93 226.82 326.83 228.8 329.99 229.98C333.15 231.17 336.58 231.56 339.52 230.9C339.86 230.79 340.07 230.68 340.16 230.55C340.24 230.43 340.2 230.3 340.06 230.18C339.77 229.93 339.05 229.67 337.97 229.43C336.89 229.2 335.46 228.99 333.76 228.83C330.43 228.51 326.47 228.46 322.48 228.67C318.48 228.88 314.45 229.34 310.96 230.03C308.58 230.48 306.27 231.07 303.99 231.8C301.71 232.54 299.48 233.41 297.25 234.42C287.72 238.71 281.12 244.57 277.09 250.92C273.06 257.27 271.61 264.1 272.39 270.36C278.9 308.89 338.78 294.87 362.89 287.37C395.96 276.22 438.94 259.12 452.52 223.39C454.41 217.6 454.11 210.55 452.3 203.89C450.49 197.24 447.47 191.3 443.86 187.98C425.34 170.27 400.16 176.81 386.13 196.26C366.22 222.46 368.84 257.8 377.68 287.46C381.68 300.25 397.74 361.86 365.43 358.13C333.93 348.78 367.64 295.23 376.15 282.85C384.02 272.76 395.61 269.83 407.46 267.04C429.58 263.87 451.96 269.61 472.97 275.85C525.46 293.47 582.6 298.21 637.64 296.3C656.17 295.54 736.9 298.3 741.43 270.89" fill="none" stroke="currentColor" stroke-linecap="round" stroke-linejoin="round" vector-effect="non-scaling-stroke" style="stroke-width:var(--sw,1px)"/><path fill="currentColor" d="M109.22 339.53L109.22 318.8L123.84 318.8L123.84 321.38L112.17 321.38L112.17 336.95L124.26 336.95L124.26 339.53ZM111.9 330.27L111.9 327.75L122.57 327.75L122.57 330.27ZM111.9 330.27M158.67 339.53L158.67 318.8L166.75 318.8C169.44 318.8 171.55 319.44 173.1 320.72C174.63 321.99 175.41 323.76 175.41 326.03C175.41 327.53 175.06 328.82 174.36 329.89C173.67 330.97 172.69 331.79 171.41 332.36C170.13 332.93 168.57 333.22 166.75 333.22L160.3 333.22L161.63 331.86L161.63 339.53ZM172.53 339.53L167.27 332.02L170.42 332.02L175.75 339.53ZM161.63 332.16L160.3 330.7L166.67 330.7C168.57 330.7 170 330.3 170.97 329.49C171.95 328.66 172.44 327.51 172.44 326.03C172.44 324.56 171.95 323.41 170.97 322.59C170 321.78 168.57 321.38 166.67 321.38L160.3 321.38L161.63 319.91ZM161.63 332.16M209.82 339.53L209.82 318.8L212.77 318.8L212.77 339.53ZM209.82 339.53M257.88 339.77C256.31 339.77 254.85 339.51 253.52 338.99C252.19 338.47 251.03 337.73 250.05 336.77C249.07 335.81 248.31 334.69 247.76 333.41C247.2 332.13 246.93 330.72 246.93 329.17C246.93 327.63 247.2 326.22 247.76 324.94C248.31 323.66 249.08 322.54 250.07 321.58C251.06 320.62 252.21 319.88 253.54 319.36C254.87 318.83 256.33 318.56 257.91 318.56C259.51 318.56 260.99 318.84 262.33 319.39C263.69 319.93 264.84 320.74 265.79 321.8L263.87 323.66C263.07 322.84 262.18 322.22 261.19 321.81C260.21 321.41 259.16 321.2 258.04 321.2C256.87 321.2 255.79 321.4 254.79 321.8C253.79 322.2 252.92 322.75 252.19 323.45C251.46 324.16 250.9 325.01 250.49 325.99C250.08 326.97 249.88 328.03 249.88 329.17C249.88 330.32 250.08 331.38 250.49 332.36C250.9 333.33 251.46 334.17 252.19 334.89C252.92 335.6 253.79 336.15 254.79 336.55C255.79 336.95 256.87 337.14 258.04 337.14C259.16 337.14 260.21 336.94 261.19 336.53C262.18 336.13 263.07 335.5 263.87 334.64L265.79 336.52C264.84 337.58 263.69 338.39 262.33 338.94C260.99 339.49 259.51 339.77 257.88 339.77ZM257.88 339.77M295.7 339.53L305.09 318.8L308.02 318.8L317.44 339.53L314.33 339.53L305.95 320.47L307.14 320.47L298.75 339.53ZM299.7 334.34L300.5 331.99L312.17 331.99L313.03 334.34ZM299.7 334.34M425.3 339.53L425.3 318.8L433.38 318.8C436.07 318.8 438.18 319.44 439.72 320.72C441.26 321.99 442.04 323.76 442.04 326.03C442.04 327.53 441.69 328.82 440.99 329.89C440.3 330.97 439.32 331.79 438.04 332.36C436.76 332.93 435.2 333.22 433.38 333.22L426.93 333.22L428.26 331.86L428.26 339.53ZM439.16 339.53L433.9 332.02L437.05 332.02L442.38 339.53ZM428.26 332.16L426.93 330.7L433.3 330.7C435.2 330.7 436.63 330.3 437.6 329.49C438.58 328.66 439.07 327.51 439.07 326.03C439.07 324.56 438.58 323.41 437.6 322.59C436.63 321.78 435.2 321.38 433.3 321.38L426.93 321.38L428.26 319.91ZM428.26 332.16M476.45 339.53L476.45 318.8L491.07 318.8L491.07 321.38L479.4 321.38L479.4 336.95L491.5 336.95L491.5 339.53ZM479.14 330.27L479.14 327.75L489.81 327.75L489.81 330.27ZM479.14 330.27M525.91 339.53L525.91 318.8L528.33 318.8L542.05 335.83L540.77 335.83L540.77 318.8L543.73 318.8L543.73 339.53L541.3 339.53L527.59 322.5L528.86 322.5L528.86 339.53ZM525.91 339.53M577.73 339.53L577.73 337.52L591.68 320.22L592.01 321.38L577.95 321.38L577.95 318.8L594.66 318.8L594.66 320.81L580.79 338.11L580.43 336.95L595.05 336.95L595.05 339.53ZM577.73 339.53M637.77 339.77C636.18 339.77 634.71 339.5 633.36 338.97C632.02 338.44 630.85 337.7 629.86 336.74C628.87 335.78 628.1 334.66 627.55 333.38C626.99 332.09 626.72 330.7 626.72 329.17C626.72 327.65 626.99 326.25 627.55 324.97C628.1 323.68 628.87 322.56 629.86 321.61C630.85 320.65 632.01 319.91 633.34 319.38C634.69 318.84 636.16 318.56 637.77 318.56C639.34 318.56 640.79 318.83 642.13 319.36C643.46 319.88 644.63 320.62 645.63 321.58C646.63 322.54 647.39 323.66 647.94 324.94C648.48 326.22 648.75 327.63 648.75 329.17C648.75 330.72 648.48 332.13 647.94 333.41C647.39 334.69 646.63 335.81 645.63 336.77C644.63 337.73 643.46 338.47 642.13 338.99C640.79 339.51 639.34 339.77 637.77 339.77ZM637.77 337.14C638.91 337.14 639.97 336.95 640.94 336.55C641.91 336.15 642.77 335.59 643.48 334.88C644.21 334.15 644.77 333.31 645.17 332.34C645.58 331.38 645.78 330.32 645.78 329.17C645.78 328.03 645.58 326.97 645.17 326C644.77 325.03 644.21 324.19 643.48 323.47C642.77 322.75 641.91 322.2 640.94 321.8C639.97 321.4 638.91 321.2 637.77 321.2C636.6 321.2 635.52 321.4 634.55 321.8C633.57 322.2 632.71 322.75 631.98 323.47C631.25 324.19 630.69 325.03 630.28 326C629.88 326.97 629.67 328.03 629.67 329.17C629.67 330.32 629.88 331.38 630.28 332.34C630.69 333.31 631.25 334.15 631.98 334.88C632.71 335.59 633.57 336.15 634.55 336.55C635.52 336.95 636.6 337.14 637.77 337.14ZM637.77 337.14M682.9 339.53L682.9 318.8L685.32 318.8L699.04 335.83L697.76 335.83L697.76 318.8L700.73 318.8L700.73 339.53L698.29 339.53L684.59 322.5L685.85 322.5L685.85 339.53ZM682.9 339.53M736.56 339.53L736.56 318.8L739.52 318.8L739.52 339.53ZM736.56 339.53"/></symbol>
  <symbol id="er-sign" viewBox="107.62 176.14 635.32 183.57"><path d="M109.12 253.64C113.74 226.14 157.75 233.71 176.54 235.35C219.56 238.89 261.33 241.05 303.23 228.69C306.32 227.65 309.73 226.75 313.19 225.78C316.64 224.8 320.16 223.75 323.45 222.39C328.24 220.55 335.96 217.96 342.7 214.87C349.45 211.78 355.21 208.2 356.08 204.36C356.2 203.79 356.2 203.22 356.09 202.64C355.97 202.07 355.72 201.5 355.34 200.91C351.23 195.73 344.82 194.57 338.61 195.99C332.39 197.42 326.38 201.43 323.06 206.62C321.4 209.11 320.17 212.27 319.85 215.43C319.52 218.6 320.1 221.77 322.04 224.29C323.93 226.82 326.83 228.8 329.99 229.98C333.15 231.17 336.58 231.56 339.52 230.9C339.86 230.79 340.07 230.68 340.16 230.55C340.24 230.43 340.2 230.3 340.06 230.18C339.77 229.93 339.05 229.67 337.97 229.43C336.89 229.2 335.46 228.99 333.76 228.83C330.43 228.51 326.47 228.46 322.48 228.67C318.48 228.88 314.45 229.34 310.96 230.03C308.58 230.48 306.27 231.07 303.99 231.8C301.71 232.54 299.48 233.41 297.25 234.42C287.72 238.71 281.12 244.57 277.09 250.92C273.06 257.27 271.61 264.1 272.39 270.36C278.9 308.89 338.78 294.87 362.89 287.37C395.96 276.22 438.94 259.12 452.52 223.39C454.41 217.6 454.11 210.55 452.3 203.89C450.49 197.24 447.47 191.3 443.86 187.98C425.34 170.27 400.16 176.81 386.13 196.26C366.22 222.46 368.84 257.8 377.68 287.46C381.68 300.25 397.74 361.86 365.43 358.13C333.93 348.78 367.64 295.23 376.15 282.85C384.02 272.76 395.61 269.83 407.46 267.04C429.58 263.87 451.96 269.61 472.97 275.85C525.46 293.47 582.6 298.21 637.64 296.3C656.17 295.54 736.9 298.3 741.43 270.89" fill="none" stroke="currentColor" stroke-linecap="round" stroke-linejoin="round" pathLength="1" style="stroke-width:var(--sw-u,1.6)"/></symbol>
</svg>
